<?xml version="1.0" encoding="UTF-8" standalone="no"?>
<!DOCTYPE svg PUBLIC "-//W3C//DTD SVG 1.1//EN" "http://www.w3.org/Graphics/SVG/1.1/DTD/svg11.dtd">
<svg width="100%" height="100%" viewBox="0 0 8334 8334" version="1.1" xmlns="http://www.w3.org/2000/svg" xmlns:xlink="http://www.w3.org/1999/xlink" xml:space="preserve" xmlns:serif="http://www.serif.com/" style="fill-rule:evenodd;clip-rule:evenodd;stroke-linejoin:round;stroke-miterlimit:1.41421;">
    <g transform="matrix(4.16667,0,0,4.16667,0,0)">
        <g transform="matrix(2.43807,0,0,2.43807,-1257.74,-2027.95)">
            <path d="M926.037,881.404C1125.02,881.404 1286.58,1042.96 1286.58,1241.94C1286.58,1440.93 1125.02,1602.48 926.037,1602.48C727.05,1602.48 565.497,1440.93 565.497,1241.94C565.497,1042.96 727.05,881.404 926.037,881.404ZM925.918,937.978C1093.75,937.978 1230,1074.23 1230,1242.06C1230,1409.89 1093.75,1546.15 925.918,1546.15C758.089,1546.15 621.833,1409.89 621.833,1242.06C621.833,1074.23 758.089,937.978 925.918,937.978Z"/>
        </g>
        <g transform="matrix(2.43807,0,0,2.43807,-58.2132,-67.738)">
            <path d="M488.821,631.586C504.052,631.586 516.417,619.221 516.417,603.991C516.417,588.76 504.052,576.395 488.821,576.395L263.604,576.395C248.374,576.395 236.009,564.03 236.009,548.799C236.009,533.569 248.374,521.204 263.604,521.203L557.281,521.203C572.512,521.203 584.877,508.838 584.877,493.608C584.877,478.377 572.512,466.012 557.281,466.012L233.229,466.012C217.999,466.012 205.634,453.647 205.634,438.416C205.634,423.186 217.999,410.821 233.229,410.82L557.281,410.82C572.512,410.82 584.877,398.455 584.877,383.225C584.877,367.994 572.512,355.629 557.281,355.629L263.604,355.629C248.374,355.629 236.009,343.264 236.009,328.033C236.009,312.803 248.374,300.438 263.604,300.437L488.821,300.437C504.052,300.437 516.417,288.072 516.417,272.842C516.417,257.611 504.052,245.246 488.821,245.246L399.477,245.246C384.246,245.246 371.881,232.881 371.881,217.65C371.881,207.994 376.851,199.49 384.37,194.558C395.532,192.289 406.965,190.769 418.614,190.054L449.46,190.054C579.363,198.029 682.399,306.048 682.399,437.944C682.399,575.018 571.112,686.306 434.037,686.306C416.374,686.306 399.14,684.458 382.516,680.945C376.044,675.893 371.881,668.02 371.881,659.182C371.881,643.952 384.246,631.587 399.477,631.586L488.821,631.586Z"/>
        </g>
    </g>
</svg>
