<?xml version="1.0" encoding="UTF-8" standalone="no"?>
<!DOCTYPE svg PUBLIC "-//W3C//DTD SVG 1.1//EN" "http://www.w3.org/Graphics/SVG/1.1/DTD/svg11.dtd">
<svg width="100%" height="100%" viewBox="0 0 8334 8334" version="1.1" xmlns="http://www.w3.org/2000/svg" xmlns:xlink="http://www.w3.org/1999/xlink" xml:space="preserve" xmlns:serif="http://www.serif.com/" style="fill-rule:evenodd;clip-rule:evenodd;stroke-linejoin:round;stroke-miterlimit:1.41421;">
    <g transform="matrix(4.16667,0,0,4.16667,0,0)">
        <g transform="matrix(1,0,0,1,-24.3299,0.575771)">
            <circle cx="1024.33" cy="1000" r="796.091" style="fill:white;"/>
        </g>
        <g transform="matrix(2.43807,0,0,2.43807,-1257.74,-2027.95)">
            <path d="M926.037,881.404C1125.02,881.404 1286.58,1042.96 1286.58,1241.94C1286.58,1440.93 1125.02,1602.48 926.037,1602.48C727.05,1602.48 565.497,1440.93 565.497,1241.94C565.497,1042.96 727.05,881.404 926.037,881.404ZM925.918,937.978C1093.75,937.978 1230,1074.23 1230,1242.06C1230,1409.89 1093.75,1546.15 925.918,1546.15C758.089,1546.15 621.833,1409.89 621.833,1242.06C621.833,1074.23 758.089,937.978 925.918,937.978Z" style="fill:rgb(84,150,200);"/>
        </g>
        <g transform="matrix(2.43807,0,0,2.43807,-58.2132,-67.738)">
            <path d="M488.821,631.586C504.052,631.586 516.417,619.221 516.417,603.991C516.417,588.76 504.052,576.395 488.821,576.395L263.604,576.395C248.374,576.395 236.009,564.03 236.009,548.799C236.009,533.569 248.374,521.204 263.604,521.203L557.281,521.203C572.512,521.203 584.877,508.838 584.877,493.608C584.877,478.377 572.512,466.012 557.281,466.012L233.229,466.012C217.999,466.012 205.634,453.647 205.634,438.416C205.634,423.186 217.999,410.821 233.229,410.82L557.281,410.82C572.512,410.82 584.877,398.455 584.877,383.225C584.877,367.994 572.512,355.629 557.281,355.629L263.604,355.629C248.374,355.629 236.009,343.264 236.009,328.033C236.009,312.803 248.374,300.438 263.604,300.437L488.821,300.437C504.052,300.437 516.417,288.072 516.417,272.842C516.417,257.611 504.052,245.246 488.821,245.246L399.477,245.246C384.246,245.246 371.881,232.881 371.881,217.65C371.881,207.994 376.851,199.49 384.37,194.558C395.532,192.289 406.965,190.769 418.614,190.054L449.46,190.054C579.363,198.029 682.399,306.048 682.399,437.944C682.399,575.018 571.112,686.306 434.037,686.306C416.374,686.306 399.14,684.458 382.516,680.945C376.044,675.893 371.881,668.02 371.881,659.182C371.881,643.952 384.246,631.587 399.477,631.586L488.821,631.586Z" style="fill:rgb(193,113,113);"/>
        </g>
        <g transform="matrix(1.06099,0,0,1.06099,-63.1513,-61.6055)">
            <circle cx="1439.51" cy="1440.09" r="439.511" style="fill:white;"/>
        </g>
        <g transform="matrix(3.80553,0,0,3.80553,1446.23,1450.9)">
            <g transform="matrix(1,0,0,1,-127.25,-112.5)">
                <g>
                    <path d="M40.2,101.1C39.8,101.1 39.7,100.9 39.9,100.6L42,97.9C42.2,97.6 42.7,97.4 43.1,97.4L78.8,97.4C79.2,97.4 79.3,97.7 79.1,98L77.4,100.6C77.2,100.9 76.7,101.2 76.4,101.2L40.2,101.1Z" style="fill-rule:nonzero;"/>
                    <path d="M25.1,110.3C24.7,110.3 24.6,110.1 24.8,109.8L26.9,107.1C27.1,106.8 27.6,106.6 28,106.6L73.6,106.6C74,106.6 74.2,106.9 74.1,107.2L73.3,109.6C73.2,110 72.8,110.2 72.4,110.2L25.1,110.3Z" style="fill-rule:nonzero;"/>
                    <path d="M49.3,119.5C48.9,119.5 48.8,119.2 49,118.9L50.4,116.4C50.6,116.1 51,115.8 51.4,115.8L71.4,115.8C71.8,115.8 72,116.1 72,116.5L71.8,118.9C71.8,119.3 71.4,119.6 71.1,119.6L49.3,119.5Z" style="fill-rule:nonzero;"/>
                    <g id="CXHf1q_5_">
                        <path d="M153.1,99.3C146.8,100.9 142.5,102.1 136.3,103.7C134.8,104.1 134.7,104.2 133.4,102.7C131.9,101 130.8,99.9 128.7,98.9C122.4,95.8 116.3,96.7 110.6,100.4C103.8,104.8 100.3,111.3 100.4,119.4C100.5,127.4 106,134 113.9,135.1C120.7,136 126.4,133.6 130.9,128.5C131.8,127.4 132.6,126.2 133.6,124.8C130,124.8 125.5,124.8 114.3,124.8C112.2,124.8 111.7,123.5 112.4,121.8C113.7,118.7 116.1,113.5 117.5,110.9C117.8,110.3 118.5,109.3 120,109.3C125.1,109.3 143.9,109.3 156.4,109.3C156.2,112 156.2,114.7 155.8,117.4C154.7,124.6 152,131.2 147.6,137C140.4,146.5 131,152.4 119.1,154C109.3,155.3 100.2,153.4 92.2,147.4C84.8,141.8 80.6,134.4 79.5,125.2C78.2,114.3 81.4,104.5 88,95.9C95.1,86.6 104.5,80.7 116,78.6C125.4,76.9 134.4,78 142.5,83.5C147.8,87 151.6,91.8 154.1,97.6C154.7,98.5 154.3,99 153.1,99.3Z" style="fill-rule:nonzero;"/>
                        <path d="M186.2,154.6C177.1,154.4 168.8,151.8 161.8,145.8C155.9,140.7 152.2,134.2 151,126.5C149.2,115.2 152.3,105.2 159.1,96.3C166.4,86.7 175.2,81.7 187.1,79.6C197.3,77.8 206.9,78.8 215.6,84.7C223.5,90.1 228.4,97.4 229.7,107C231.4,120.5 227.5,131.5 218.2,140.9C211.6,147.6 203.5,151.8 194.2,153.7C191.5,154.2 188.8,154.3 186.2,154.6ZM210,114.2C209.9,112.9 209.9,111.9 209.7,110.9C207.9,101 198.8,95.4 189.3,97.6C180,99.7 174,105.6 171.8,115C170,122.8 173.8,130.7 181,133.9C186.5,136.3 192,136 197.3,133.3C205.2,129.2 209.5,122.8 210,114.2Z" style="fill-rule:nonzero;"/>
                    </g>
                </g>
            </g>
        </g>
    </g>
</svg>
