<?xml version="1.0" encoding="UTF-8" standalone="no"?>
<!DOCTYPE svg PUBLIC "-//W3C//DTD SVG 1.1//EN" "http://www.w3.org/Graphics/SVG/1.1/DTD/svg11.dtd">
<svg width="100%" height="100%" viewBox="0 0 8334 8334" version="1.1" xmlns="http://www.w3.org/2000/svg" xmlns:xlink="http://www.w3.org/1999/xlink" xml:space="preserve" xmlns:serif="http://www.serif.com/" style="fill-rule:evenodd;clip-rule:evenodd;stroke-linejoin:round;stroke-miterlimit:1.41421;">
    <g transform="matrix(4.16667,0,0,4.16667,0,0)">
        <g transform="matrix(1,0,0,1,-24.3299,0.575771)">
            <circle cx="1024.33" cy="1000" r="796.091" style="fill:white;"/>
        </g>
        <g transform="matrix(2.43807,0,0,2.43807,-1257.74,-2027.95)">
            <path d="M926.037,881.404C1125.02,881.404 1286.58,1042.96 1286.58,1241.94C1286.58,1440.93 1125.02,1602.48 926.037,1602.48C727.05,1602.48 565.497,1440.93 565.497,1241.94C565.497,1042.96 727.05,881.404 926.037,881.404ZM925.918,937.978C1093.75,937.978 1230,1074.23 1230,1242.06C1230,1409.89 1093.75,1546.15 925.918,1546.15C758.089,1546.15 621.833,1409.89 621.833,1242.06C621.833,1074.23 758.089,937.978 925.918,937.978Z" style="fill:rgb(84,150,200);"/>
        </g>
        <g transform="matrix(2.43807,0,0,2.43807,-58.2132,-67.738)">
            <path d="M488.821,631.586C504.052,631.586 516.417,619.221 516.417,603.991C516.417,588.76 504.052,576.395 488.821,576.395L263.604,576.395C248.374,576.395 236.009,564.03 236.009,548.799C236.009,533.569 248.374,521.204 263.604,521.203L557.281,521.203C572.512,521.203 584.877,508.838 584.877,493.608C584.877,478.377 572.512,466.012 557.281,466.012L233.229,466.012C217.999,466.012 205.634,453.647 205.634,438.416C205.634,423.186 217.999,410.821 233.229,410.82L557.281,410.82C572.512,410.82 584.877,398.455 584.877,383.225C584.877,367.994 572.512,355.629 557.281,355.629L263.604,355.629C248.374,355.629 236.009,343.264 236.009,328.033C236.009,312.803 248.374,300.438 263.604,300.437L488.821,300.437C504.052,300.437 516.417,288.072 516.417,272.842C516.417,257.611 504.052,245.246 488.821,245.246L399.477,245.246C384.246,245.246 371.881,232.881 371.881,217.65C371.881,207.994 376.851,199.49 384.37,194.558C395.532,192.289 406.965,190.769 418.614,190.054L449.46,190.054C579.363,198.029 682.399,306.048 682.399,437.944C682.399,575.018 571.112,686.306 434.037,686.306C416.374,686.306 399.14,684.458 382.516,680.945C376.044,675.893 371.881,668.02 371.881,659.182C371.881,643.952 384.246,631.587 399.477,631.586L488.821,631.586Z" style="fill:rgb(193,113,113);"/>
        </g>
        <g transform="matrix(1.06099,0,0,1.06099,-63.1513,-61.6055)">
            <circle cx="1439.51" cy="1440.09" r="439.511" style="fill:white;"/>
        </g>
        <g transform="matrix(1,0,0,1,-10,20)">
            <ellipse cx="1477.4" cy="1400.19" rx="453.075" ry="466.318" style="fill:none;"/>
            <g id="_198302696" transform="matrix(2.49932,0,0,2.49932,1155.38,1022.92)">
                <path id="_227268128" d="M82.626,243.321C82.626,243.321 70.687,250.588 90.931,252.665C115.328,255.779 128.306,255.26 155.298,250.069C155.298,250.069 162.565,254.741 172.427,258.375C111.695,284.329 34.87,256.817 82.626,243.321ZM74.84,209.581C74.84,209.581 61.863,219.443 82.107,221.519C108.58,224.115 129.344,224.634 165.16,217.367C165.16,217.367 169.832,222.558 177.618,225.153C104.428,246.955 22.412,227.23 74.84,209.581ZM218.107,268.756C218.107,268.756 226.931,276.024 208.244,281.733C173.466,292.115 62.381,295.229 31.236,281.733C20.336,277.062 41.099,270.313 47.847,269.275C54.595,267.718 58.228,267.718 58.228,267.718C46.29,259.413 -21.191,284.848 23.969,292.115C148.03,312.359 250.29,283.291 218.106,268.756L218.107,268.756ZM88.336,174.283C88.336,174.283 31.756,187.779 68.092,192.451C83.664,194.527 114.29,194.008 142.84,191.932C166.198,189.855 189.558,185.703 189.558,185.703C189.558,185.703 181.252,189.336 175.542,192.97C117.924,208.023 7.359,201.275 39.023,185.703C66.015,172.726 88.335,174.283 88.335,174.283L88.336,174.283ZM189.558,230.863C247.695,200.756 220.703,171.688 202.016,175.321C197.344,176.359 195.268,177.398 195.268,177.398C195.268,177.398 196.825,174.283 200.458,173.245C237.313,160.268 266.382,212.176 188.52,232.42C188.52,232.42 189.038,231.901 189.558,230.863ZM94.046,312.878C150.107,316.512 235.756,310.802 237.832,284.329C237.832,284.329 233.68,294.711 191.634,302.496C143.878,311.321 84.703,310.283 49.924,304.573C49.924,304.573 57.191,310.802 94.046,312.878Z" style="fill:rgb(78,120,150);fill-rule:nonzero;"/>
                <g transform="matrix(0.096026,0,0,0.096026,-458.278,-417.28)">
                    <path d="M6205.89,5927.99C5676.14,5317.16 6784.3,5041.47 6784.3,5041.47C6081.56,5446.89 6211.3,5565.82 6378.88,5809.07C6562.67,6063.14 6162.65,6268.56 6162.65,6268.56C6162.65,6268.56 6362.65,6106.38 6205.9,5927.99L6205.89,5927.99ZM6378.88,4376.57C6378.88,4376.57 6714.03,4717.13 6059.94,5230.67C5535.6,5646.9 5941.02,5884.74 6059.94,6155.03C5751.82,5879.35 5530.19,5636.09 5681.55,5409.05C5903.18,5073.9 6514.02,4911.73 6378.88,4376.57Z" style="fill:rgb(245,130,25);"/>
                </g>
            </g>
        </g>
    </g>
</svg>
