<?xml version="1.0" encoding="UTF-8" standalone="no"?>
<!DOCTYPE svg PUBLIC "-//W3C//DTD SVG 1.1//EN" "http://www.w3.org/Graphics/SVG/1.1/DTD/svg11.dtd">
<svg width="100%" height="100%" viewBox="0 0 8334 8334" version="1.1" xmlns="http://www.w3.org/2000/svg" xmlns:xlink="http://www.w3.org/1999/xlink" xml:space="preserve" xmlns:serif="http://www.serif.com/" style="fill-rule:evenodd;clip-rule:evenodd;stroke-linejoin:round;stroke-miterlimit:1.41421;">
    <g transform="matrix(4.16667,0,0,4.16667,0,0)">
        <g transform="matrix(1,0,0,1,-24.3299,0.575771)">
            <circle cx="1024.33" cy="1000" r="796.091" style="fill:white;"/>
        </g>
        <g transform="matrix(2.43807,0,0,2.43807,-1257.74,-2027.95)">
            <path d="M926.037,881.404C1125.02,881.404 1286.58,1042.96 1286.58,1241.94C1286.58,1440.93 1125.02,1602.48 926.037,1602.48C727.05,1602.48 565.497,1440.93 565.497,1241.94C565.497,1042.96 727.05,881.404 926.037,881.404ZM925.918,937.978C1093.75,937.978 1230,1074.23 1230,1242.06C1230,1409.89 1093.75,1546.15 925.918,1546.15C758.089,1546.15 621.833,1409.89 621.833,1242.06C621.833,1074.23 758.089,937.978 925.918,937.978Z" style="fill:rgb(84,150,200);"/>
        </g>
        <g transform="matrix(2.43807,0,0,2.43807,-58.2132,-67.738)">
            <path d="M488.821,631.586C504.052,631.586 516.417,619.221 516.417,603.991C516.417,588.76 504.052,576.395 488.821,576.395L263.604,576.395C248.374,576.395 236.009,564.03 236.009,548.799C236.009,533.569 248.374,521.204 263.604,521.203L557.281,521.203C572.512,521.203 584.877,508.838 584.877,493.608C584.877,478.377 572.512,466.012 557.281,466.012L233.229,466.012C217.999,466.012 205.634,453.647 205.634,438.416C205.634,423.186 217.999,410.821 233.229,410.82L557.281,410.82C572.512,410.82 584.877,398.455 584.877,383.225C584.877,367.994 572.512,355.629 557.281,355.629L263.604,355.629C248.374,355.629 236.009,343.264 236.009,328.033C236.009,312.803 248.374,300.438 263.604,300.437L488.821,300.437C504.052,300.437 516.417,288.072 516.417,272.842C516.417,257.611 504.052,245.246 488.821,245.246L399.477,245.246C384.246,245.246 371.881,232.881 371.881,217.65C371.881,207.994 376.851,199.49 384.37,194.558C395.532,192.289 406.965,190.769 418.614,190.054L449.46,190.054C579.363,198.029 682.399,306.048 682.399,437.944C682.399,575.018 571.112,686.306 434.037,686.306C416.374,686.306 399.14,684.458 382.516,680.945C376.044,675.893 371.881,668.02 371.881,659.182C371.881,643.952 384.246,631.587 399.477,631.586L488.821,631.586Z" style="fill:rgb(193,113,113);"/>
        </g>
        <g transform="matrix(1.06099,0,0,1.06099,-63.1513,-61.6055)">
            <circle cx="1439.51" cy="1440.09" r="439.511" style="fill:white;"/>
        </g>
        <g transform="matrix(1,0,0,1,-10,20)">
            <ellipse cx="1477.4" cy="1400.19" rx="453.075" ry="466.318" style="fill:none;"/>
            <clipPath id="_clip1">
                <ellipse cx="1477.4" cy="1400.19" rx="453.075" ry="466.318"/>
            </clipPath>
            <g clip-path="url(#_clip1)">
                <g transform="matrix(2.49932,0,0,2.49932,1464.16,1605.52)">
                    <g transform="matrix(1,0,0,1,-121.376,-230.12)">
                        <clipPath id="_clip2">
                            <rect x="0" y="0" width="242.752" height="460.24"/>
                        </clipPath>
                        <g clip-path="url(#_clip2)">
                            <g id="_198302696" transform="matrix(1,0,0,1,-2.168,-2.9854)">
                                <path id="_227268128" d="M82.626,243.321C82.626,243.321 70.687,250.588 90.931,252.665C115.328,255.779 128.306,255.26 155.298,250.069C155.298,250.069 162.565,254.741 172.427,258.375C111.695,284.329 34.87,256.817 82.626,243.321L82.626,243.321ZM74.84,209.581C74.84,209.581 61.863,219.443 82.107,221.519C108.58,224.115 129.344,224.634 165.16,217.367C165.16,217.367 169.832,222.558 177.618,225.153C104.428,246.955 22.412,227.23 74.84,209.581L74.84,209.581ZM218.107,268.756C218.107,268.756 226.931,276.024 208.244,281.733C173.466,292.115 62.381,295.229 31.236,281.733C20.336,277.062 41.099,270.313 47.847,269.275C54.595,267.718 58.228,267.718 58.228,267.718C46.29,259.413 -21.191,284.848 23.969,292.115C148.03,312.359 250.29,283.291 218.106,268.756L218.107,268.756ZM88.336,174.283C88.336,174.283 31.756,187.779 68.092,192.451C83.664,194.527 114.29,194.008 142.84,191.932C166.198,189.855 189.558,185.703 189.558,185.703C189.558,185.703 181.252,189.336 175.542,192.97C117.924,208.023 7.359,201.275 39.023,185.703C66.015,172.726 88.335,174.283 88.335,174.283L88.336,174.283ZM189.558,230.863C247.695,200.756 220.703,171.688 202.016,175.321C197.344,176.359 195.268,177.398 195.268,177.398C195.268,177.398 196.825,174.283 200.458,173.245C237.313,160.268 266.382,212.176 188.52,232.42C188.52,232.42 189.038,231.901 189.558,230.863L189.558,230.863ZM94.046,312.878C150.107,316.512 235.756,310.802 237.832,284.329C237.832,284.329 233.68,294.711 191.634,302.496C143.878,311.321 84.703,310.283 49.924,304.573C49.924,304.573 57.191,310.802 94.046,312.878L94.046,312.878Z" style="fill:rgb(78,120,150);fill-rule:nonzero;"/>
                                <path id="_230367536" d="M154.26,2.985C154.26,2.985 186.443,35.688 123.634,85.001C73.283,124.97 112.214,147.809 123.634,173.764C94.046,147.291 72.764,123.932 87.298,102.13C108.581,69.947 167.237,54.375 154.26,2.985L154.26,2.985ZM137.65,151.962C152.702,169.092 133.497,184.665 133.497,184.665C133.497,184.665 171.909,164.94 154.26,140.543C138.168,117.184 125.71,105.764 193.191,66.833C193.191,66.833 86.779,93.306 137.649,151.962L137.65,151.962ZM99.237,430.71L99.237,379.84C99.237,366.863 91.97,358.039 73.802,358.039C63.42,358.039 54.596,360.634 46.809,363.748L49.405,373.092C55.115,371.015 62.382,368.939 70.168,368.939C80.031,368.939 84.703,373.092 84.703,381.397L84.703,388.145L79.512,388.145C54.596,388.145 43.176,397.489 43.176,412.542C43.176,425 50.962,432.267 64.977,432.267C73.802,432.267 80.55,428.115 86.779,422.924L87.817,430.71L99.237,430.71L99.237,430.71ZM84.703,414.099C79.512,418.771 73.802,421.367 68.611,421.367C61.863,421.367 57.711,417.214 57.711,409.947C57.711,402.68 61.863,397.489 78.474,397.489L84.703,397.489L84.703,414.099L84.703,414.099ZM148.031,430.71L129.863,430.71L108.061,359.596L123.634,359.596L137.13,403.199L140.244,416.176C146.993,397.489 152.184,378.282 154.26,359.596L169.833,359.596C165.68,382.955 158.413,408.389 148.031,430.71L148.031,430.71ZM232.123,430.71L232.123,379.84C232.123,366.863 224.855,358.039 206.687,358.039C196.306,358.039 187.481,360.634 179.695,363.748L181.771,373.092C188,371.015 195.267,368.939 203.054,368.939C212.916,368.939 217.588,373.092 217.588,381.397L217.588,388.145L212.397,388.145C187.481,388.145 176.061,397.489 176.061,412.542C176.061,425 183.329,432.267 197.344,432.267C206.687,432.267 213.436,428.115 219.665,422.924L220.703,430.71L232.123,430.71L232.123,430.71ZM217.588,414.099C212.397,418.771 206.687,421.367 201.496,421.367C194.748,421.367 190.596,417.214 190.596,409.947C190.596,402.68 194.748,397.489 211.359,397.489L217.588,397.489L217.588,414.099L217.588,414.099ZM27.084,442.649C22.931,448.878 16.702,453.55 8.916,456.145L2.168,447.84C7.359,444.725 12.55,440.054 14.626,435.901C16.702,432.268 17.222,427.076 17.222,415.138L17.222,334.161L32.794,334.161L32.794,414.1C32.794,430.191 31.237,436.42 27.084,442.649L27.084,442.649Z" style="fill:rgb(245,130,25);fill-rule:nonzero;"/>
                            </g>
                        </g>
                    </g>
                </g>
            </g>
        </g>
    </g>
</svg>
