<?xml version="1.0" encoding="UTF-8" standalone="no"?>
<!DOCTYPE svg PUBLIC "-//W3C//DTD SVG 1.1//EN" "http://www.w3.org/Graphics/SVG/1.1/DTD/svg11.dtd">
<svg width="100%" height="100%" viewBox="0 0 10834 3750" version="1.1" xmlns="http://www.w3.org/2000/svg" xmlns:xlink="http://www.w3.org/1999/xlink" xml:space="preserve" xmlns:serif="http://www.serif.com/" style="fill-rule:evenodd;clip-rule:evenodd;stroke-linejoin:round;stroke-miterlimit:1.41421;">
    <g transform="matrix(4.16667,0,0,4.16667,0,0)">
        <g transform="matrix(4.16667,0,0,4.16667,-470.976,-789.058)">
            <path d="M385.006,261.172C395.454,261.172 404.836,263.38 413.15,267.794C421.465,272.209 427.976,278.647 432.686,287.109C437.395,295.571 439.749,305.688 439.749,317.461L439.749,374.853C439.749,377.208 438.94,379.194 437.321,380.813C435.702,382.432 433.716,383.241 431.361,383.241C428.859,383.241 426.799,382.432 425.18,380.813C423.562,379.194 422.752,377.208 422.752,374.853L422.752,317.461C422.752,304.364 419.11,294.394 411.826,287.551C404.541,280.708 395.013,277.286 383.24,277.286C376.029,277.286 369.517,278.684 363.704,281.48C357.892,284.276 353.293,288.139 349.908,293.069C346.524,297.999 344.831,303.481 344.831,309.514L344.831,374.853C344.831,377.355 344.059,379.378 342.513,380.923C340.968,382.469 338.945,383.241 336.443,383.241C333.941,383.241 331.881,382.469 330.262,380.923C328.644,379.378 327.834,377.355 327.834,374.853L327.834,219.452C327.834,216.951 328.644,214.89 330.262,213.272C331.881,211.653 333.941,210.844 336.443,210.844C338.945,210.844 340.968,211.653 342.513,213.272C344.059,214.89 344.831,216.951 344.831,219.452L344.831,278.611C349.687,273.166 355.574,268.898 362.49,265.808C369.407,262.717 376.912,261.172 385.006,261.172Z" style="fill:rgb(84,150,200);fill-rule:nonzero;stroke:rgb(84,150,200);stroke-width:0.24px;"/>
        </g>
        <g transform="matrix(4.16667,0,0,4.16667,-470.976,-568.317)">
            <path d="M565.129,209.519C567.631,209.519 569.691,210.291 571.31,211.836C572.929,213.382 573.738,215.405 573.738,217.907L573.738,321.654C573.738,324.156 572.929,326.216 571.31,327.835C569.691,329.454 567.631,330.263 565.129,330.263C562.628,330.263 560.604,329.454 559.059,327.835C557.514,326.216 556.741,324.156 556.741,321.654L556.741,314.149C551.885,319.594 545.999,323.862 539.082,326.952C532.166,330.043 524.66,331.588 516.567,331.588C506.118,331.588 496.737,329.38 488.422,324.965C480.108,320.551 473.596,314.112 468.887,305.651C464.178,297.189 461.823,287.072 461.823,275.299L461.823,217.907C461.823,215.552 462.633,213.566 464.251,211.947C465.87,210.328 467.857,209.519 470.211,209.519C472.713,209.519 474.773,210.328 476.392,211.947C478.011,213.566 478.82,215.552 478.82,217.907L478.82,275.299C478.82,288.396 482.462,298.366 489.747,305.209C497.031,312.052 506.56,315.474 518.333,315.474C525.543,315.474 532.055,314.076 537.868,311.28C543.681,308.484 548.28,304.621 551.664,299.691C555.049,294.761 556.741,289.279 556.741,283.246L556.741,217.907C556.741,215.405 557.514,213.382 559.059,211.836C560.604,210.291 562.628,209.519 565.129,209.519Z" style="fill:rgb(84,150,200);fill-rule:nonzero;stroke:rgb(84,150,200);stroke-width:0.24px;"/>
        </g>
        <g transform="matrix(4.16667,0,0,4.16667,-470.976,-573.838)">
            <path d="M652.984,209.74C664.462,209.74 674.874,212.426 684.218,217.797C693.563,223.168 700.921,230.563 706.292,239.981C711.664,249.4 714.349,259.848 714.349,271.326L714.349,323.2C714.349,325.555 713.54,327.541 711.921,329.16C710.302,330.779 708.242,331.588 705.74,331.588C703.239,331.588 701.179,330.816 699.56,329.27C697.941,327.725 697.132,325.702 697.132,323.2L697.132,309.956C691.981,317.019 685.432,322.575 677.486,326.622C669.539,330.669 660.783,332.692 651.218,332.692C640.034,332.692 629.916,330.006 620.866,324.635C611.816,319.264 604.679,311.906 599.454,302.561C594.23,293.216 591.618,282.805 591.618,271.326C591.618,259.848 594.304,249.4 599.675,239.981C605.046,230.563 612.404,223.168 621.749,217.797C631.094,212.426 641.505,209.74 652.984,209.74ZM652.984,317.24C661.372,317.24 668.951,315.254 675.72,311.28C682.489,307.307 687.824,301.825 691.724,294.835C695.623,287.845 697.573,280.009 697.573,271.326C697.573,262.644 695.623,254.808 691.724,247.818C687.824,240.827 682.489,235.309 675.72,231.262C668.951,227.215 661.372,225.192 652.984,225.192C644.596,225.192 636.98,227.215 630.137,231.262C623.294,235.309 617.923,240.827 614.023,247.818C610.123,254.808 608.174,262.644 608.174,271.326C608.174,280.009 610.123,287.845 614.023,294.835C617.923,301.825 623.294,307.307 630.137,311.28C636.98,315.254 644.596,317.24 652.984,317.24Z" style="fill:rgb(84,150,200);fill-rule:nonzero;stroke:rgb(84,150,200);stroke-width:0.24px;"/>
        </g>
        <g transform="matrix(0.410316,0,0,0.410316,44.8805,37.0622)">
            <g transform="matrix(2.43807,0,0,2.43807,-1257.74,-2027.95)">
                <path d="M926.037,881.404C1125.02,881.404 1286.58,1042.96 1286.58,1241.94C1286.58,1440.93 1125.02,1602.48 926.037,1602.48C727.05,1602.48 565.497,1440.93 565.497,1241.94C565.497,1042.96 727.05,881.404 926.037,881.404ZM925.918,937.978C1093.75,937.978 1230,1074.23 1230,1242.06C1230,1409.89 1093.75,1546.15 925.918,1546.15C758.089,1546.15 621.833,1409.89 621.833,1242.06C621.833,1074.23 758.089,937.978 925.918,937.978Z" style="fill:rgb(84,150,200);"/>
            </g>
            <g transform="matrix(2.43807,0,0,2.43807,-58.2132,-67.738)">
                <path d="M488.821,631.586C504.052,631.586 516.417,619.221 516.417,603.991C516.417,588.76 504.052,576.395 488.821,576.395L263.604,576.395C248.374,576.395 236.009,564.03 236.009,548.799C236.009,533.569 248.374,521.204 263.604,521.203L557.281,521.203C572.512,521.203 584.877,508.838 584.877,493.608C584.877,478.377 572.512,466.012 557.281,466.012L233.229,466.012C217.999,466.012 205.634,453.647 205.634,438.416C205.634,423.186 217.999,410.821 233.229,410.82L557.281,410.82C572.512,410.82 584.877,398.455 584.877,383.225C584.877,367.994 572.512,355.629 557.281,355.629L263.604,355.629C248.374,355.629 236.009,343.264 236.009,328.033C236.009,312.803 248.374,300.438 263.604,300.437L488.821,300.437C504.052,300.437 516.417,288.072 516.417,272.842C516.417,257.611 504.052,245.246 488.821,245.246L399.477,245.246C384.246,245.246 371.881,232.881 371.881,217.65C371.881,207.994 376.851,199.49 384.37,194.558C395.532,192.289 406.965,190.769 418.614,190.054L449.46,190.054C579.363,198.029 682.399,306.048 682.399,437.944C682.399,575.018 571.112,686.306 434.037,686.306C416.374,686.306 399.14,684.458 382.516,680.945C376.044,675.893 371.881,668.02 371.881,659.182C371.881,643.952 384.246,631.587 399.477,631.586L488.821,631.586Z" style="fill:rgb(193,113,113);"/>
            </g>
            <g transform="matrix(1.06099,0,0,1.06099,-63.1513,-61.6055)">
                <circle cx="1439.51" cy="1440.09" r="439.511" style="fill:white;"/>
            </g>
            <g id="surface0" transform="matrix(1.48709,0,0,1.48709,1131.19,1202.4)">
                <path d="M0,340.157L113.386,170.079L0,0L85.039,0L198.425,170.079L85.039,340.157L0,340.157Z" style="fill:rgb(102,102,102);fill-rule:nonzero;"/>
                <path d="M113.386,340.157L226.772,170.079L113.386,0L198.425,0L425.197,340.157L340.157,340.157L269.291,233.858L198.425,340.157L113.386,340.157Z" style="fill:rgb(153,153,153);fill-rule:nonzero;"/>
                <path d="M387.402,240.945L349.606,184.252L481.89,184.252L481.89,240.945L387.402,240.945Z" style="fill:rgb(102,102,102);fill-rule:nonzero;"/>
                <path d="M330.709,155.906L292.913,99.213L481.89,99.213L481.89,155.906L330.709,155.906Z" style="fill:rgb(102,102,102);fill-rule:nonzero;"/>
            </g>
        </g>
    </g>
</svg>
