<?xml version="1.0" encoding="UTF-8" standalone="no"?>
<!DOCTYPE svg PUBLIC "-//W3C//DTD SVG 1.1//EN" "http://www.w3.org/Graphics/SVG/1.1/DTD/svg11.dtd">
<svg width="100%" height="100%" viewBox="0 0 8334 8334" version="1.1" xmlns="http://www.w3.org/2000/svg" xmlns:xlink="http://www.w3.org/1999/xlink" xml:space="preserve" xmlns:serif="http://www.serif.com/" style="fill-rule:evenodd;clip-rule:evenodd;stroke-linejoin:round;stroke-miterlimit:1.41421;">
    <g transform="matrix(4.16667,0,0,4.16667,0,0)">
        <g transform="matrix(1,0,0,1,-24.3299,0.575771)">
            <circle cx="1024.33" cy="1000" r="796.091" style="fill:white;"/>
        </g>
        <g transform="matrix(2.43807,0,0,2.43807,-1257.74,-2027.95)">
            <path d="M926.037,881.404C1125.02,881.404 1286.58,1042.96 1286.58,1241.94C1286.58,1440.93 1125.02,1602.48 926.037,1602.48C727.05,1602.48 565.497,1440.93 565.497,1241.94C565.497,1042.96 727.05,881.404 926.037,881.404ZM925.918,937.978C1093.75,937.978 1230,1074.23 1230,1242.06C1230,1409.89 1093.75,1546.15 925.918,1546.15C758.089,1546.15 621.833,1409.89 621.833,1242.06C621.833,1074.23 758.089,937.978 925.918,937.978Z" style="fill:rgb(84,150,200);"/>
        </g>
        <g transform="matrix(2.43807,0,0,2.43807,-58.2132,-67.738)">
            <path d="M488.821,631.586C504.052,631.586 516.417,619.221 516.417,603.991C516.417,588.76 504.052,576.395 488.821,576.395L263.604,576.395C248.374,576.395 236.009,564.03 236.009,548.799C236.009,533.569 248.374,521.204 263.604,521.203L557.281,521.203C572.512,521.203 584.877,508.838 584.877,493.608C584.877,478.377 572.512,466.012 557.281,466.012L233.229,466.012C217.999,466.012 205.634,453.647 205.634,438.416C205.634,423.186 217.999,410.821 233.229,410.82L557.281,410.82C572.512,410.82 584.877,398.455 584.877,383.225C584.877,367.994 572.512,355.629 557.281,355.629L263.604,355.629C248.374,355.629 236.009,343.264 236.009,328.033C236.009,312.803 248.374,300.438 263.604,300.437L488.821,300.437C504.052,300.437 516.417,288.072 516.417,272.842C516.417,257.611 504.052,245.246 488.821,245.246L399.477,245.246C384.246,245.246 371.881,232.881 371.881,217.65C371.881,207.994 376.851,199.49 384.37,194.558C395.532,192.289 406.965,190.769 418.614,190.054L449.46,190.054C579.363,198.029 682.399,306.048 682.399,437.944C682.399,575.018 571.112,686.306 434.037,686.306C416.374,686.306 399.14,684.458 382.516,680.945C376.044,675.893 371.881,668.02 371.881,659.182C371.881,643.952 384.246,631.587 399.477,631.586L488.821,631.586Z" style="fill:rgb(193,113,113);"/>
        </g>
        <g transform="matrix(1.06099,0,0,1.06099,-63.1513,-61.6055)">
            <circle cx="1439.51" cy="1440.09" r="439.511" style="fill:white;"/>
        </g>
        <g transform="matrix(7.76987,0,0,7.76987,1475.16,1475.32)">
            <g transform="matrix(1,0,0,1,-72,-72)">
                <path d="M67.743,31.035C67.743,29.33 69.146,27.927 70.851,27.927C72.556,27.927 73.959,29.33 73.959,31.035C73.959,32.74 72.556,34.143 70.851,34.143C69.146,34.143 67.743,32.74 67.743,31.035M30.666,59.175C30.666,57.47 32.069,56.067 33.774,56.067C35.479,56.067 36.882,57.47 36.882,59.175C36.882,60.88 35.479,62.283 33.774,62.283C32.069,62.283 30.666,60.88 30.666,59.175M104.819,59.32C104.819,57.615 106.222,56.212 107.927,56.212C109.632,56.212 111.035,57.615 111.035,59.32C111.035,61.025 109.632,62.428 107.927,62.428C106.222,62.428 104.819,61.025 104.819,59.32M39.663,63.578C41.093,62.943 41.739,61.267 41.104,59.834L39.725,56.716L45.148,56.716L45.148,81.16L34.207,81.16C32.857,76.416 32.436,71.456 32.968,66.553L39.663,63.578ZM62.348,64.179L62.348,56.974L75.262,56.974C75.929,56.974 79.972,57.745 79.972,60.768C79.972,63.278 76.871,64.178 74.321,64.178L62.348,64.179ZM44.717,102.972C44.717,101.267 46.12,99.864 47.825,99.864C49.53,99.864 50.933,101.267 50.933,102.972C50.933,104.677 49.53,106.08 47.825,106.08C46.12,106.08 44.717,104.677 44.717,102.972M90.768,103.117C90.768,101.412 92.171,100.009 93.876,100.009C95.581,100.009 96.984,101.412 96.984,103.117C96.984,104.822 95.581,106.225 93.876,106.225C92.171,106.225 90.768,104.822 90.768,103.117M91.729,96.069C90.198,95.741 88.692,96.715 88.364,98.249L86.804,105.529C76.658,110.125 64.995,110.069 54.893,105.376L53.334,98.096C53.006,96.564 51.5,95.588 49.97,95.917L43.543,97.297C42.349,96.067 41.239,94.759 40.22,93.38L71.492,93.38C71.846,93.38 72.082,93.316 72.082,92.994L72.082,81.932C72.082,81.61 71.846,81.546 71.492,81.546L62.346,81.546L62.346,74.534L72.238,74.534C73.141,74.534 77.066,74.792 78.321,79.809C78.714,81.352 79.577,86.371 80.167,87.978C80.755,89.78 83.149,93.38 85.7,93.38L101.846,93.38C100.763,94.829 99.579,96.2 98.302,97.482L91.729,96.069ZM109.094,66.862C109.314,69.07 109.341,71.293 109.175,73.505L105.249,73.505C104.856,73.505 104.698,73.763 104.698,74.148L104.698,75.951C104.698,80.195 102.305,81.118 100.208,81.353C98.211,81.578 95.997,80.517 95.724,79.295C94.546,72.669 92.583,71.254 89.483,68.809C93.33,66.366 97.333,62.762 97.333,57.938C97.333,52.729 93.762,49.448 91.328,47.839C87.913,45.588 84.132,45.137 83.112,45.137L42.509,45.137C48.121,38.866 55.648,34.618 63.917,33.055L68.703,38.076C69.785,39.209 71.577,39.251 72.709,38.168L78.064,33.046C89.106,35.114 98.695,41.944 104.26,51.703L100.594,59.983C99.961,61.416 100.607,63.092 102.036,63.727L109.094,66.862ZM118.237,66.996L118.112,65.716L121.888,62.194C122.656,61.478 122.369,60.037 121.387,59.671L116.56,57.866L116.182,56.62L119.193,52.438C119.807,51.588 119.243,50.231 118.209,50.061L113.119,49.233L112.507,48.09L114.646,43.395C115.084,42.439 114.27,41.216 113.218,41.256L108.052,41.436L107.236,40.446L108.423,35.414C108.663,34.392 107.626,33.354 106.604,33.594L101.573,34.78L100.581,33.964L100.762,28.798C100.802,27.752 99.578,26.935 98.624,27.369L93.93,29.509L92.787,28.896L91.957,23.805C91.789,22.773 90.431,22.209 89.581,22.821L85.396,25.832L84.152,25.455L82.347,20.627C81.981,19.643 80.539,19.36 79.825,20.124L76.303,23.903L75.023,23.778L72.303,19.383C71.753,18.493 70.28,18.493 69.732,19.383L67.012,23.778L65.731,23.903L62.208,20.124C61.494,19.36 60.052,19.643 59.686,20.627L57.881,25.455L56.636,25.832L52.452,22.821C51.602,22.207 50.243,22.773 50.075,23.805L49.245,28.896L48.102,29.509L43.408,27.369C42.454,26.933 41.23,27.752 41.27,28.798L41.45,33.964L40.458,34.78L35.427,33.594C34.405,33.356 33.367,34.392 33.607,35.414L34.792,40.446L33.978,41.436L28.812,41.256C27.77,41.226 26.949,42.439 27.383,43.395L29.523,48.09L28.91,49.233L23.82,50.061C22.786,50.229 22.226,51.588 22.836,52.438L25.847,56.62L25.469,57.866L20.641,59.671C19.661,60.037 19.374,61.478 20.14,62.194L23.917,65.716L23.792,66.996L19.398,69.716C18.508,70.266 18.508,71.739 19.398,72.287L23.792,75.007L23.917,76.287L20.14,79.81C19.374,80.524 19.661,81.964 20.641,82.332L25.469,84.137L25.847,85.383L22.836,89.566C22.224,90.418 22.787,91.776 23.821,91.942L28.91,92.77L29.523,93.915L27.383,98.608C26.947,99.562 27.77,100.789 28.812,100.747L33.976,100.566L34.792,101.558L33.607,106.591C33.367,107.611 34.405,108.647 35.427,108.407L40.458,107.222L41.45,108.036L41.27,113.203C41.23,114.249 42.454,115.067 43.408,114.631L48.102,112.492L49.245,113.105L50.075,118.193C50.243,119.229 51.602,119.789 52.452,119.179L56.634,116.166L57.88,116.545L59.685,121.371C60.051,122.351 61.493,122.64 62.207,121.872L65.73,118.095L67.011,118.223L69.731,122.617C70.279,123.503 71.752,123.505 72.302,122.617L75.022,118.223L76.302,118.095L79.824,121.872C80.538,122.64 81.98,122.351 82.346,121.371L84.151,116.545L85.397,116.166L89.58,119.179C90.43,119.789 91.788,119.227 91.956,118.193L92.786,113.105L93.929,112.492L98.623,114.631C99.577,115.067 100.799,114.251 100.761,113.203L100.581,108.036L101.572,107.222L106.603,108.407C107.625,108.647 108.662,107.611 108.422,106.591L107.237,101.558L108.051,100.566L113.217,100.747C114.259,100.789 115.083,99.562 114.645,98.608L112.506,93.915L113.118,92.77L118.208,91.942C119.244,91.776 119.806,90.418 119.192,89.566L116.181,85.383L116.559,84.137L121.386,82.332C122.368,81.964 122.655,80.524 121.887,79.81L118.111,76.287L118.236,75.007L122.63,72.287C123.52,71.739 123.521,70.266 122.631,69.716L118.237,66.996Z" style="fill-rule:nonzero;"/>
            </g>
        </g>
    </g>
</svg>
